<?xml version="1.0" encoding="utf-8"?>
<!-- Generator: Adobe Illustrator 22.0.1, SVG Export Plug-In . SVG Version: 6.00 Build 0)  -->
<svg version="1.1" id="Layer_1" xmlns="http://www.w3.org/2000/svg" xmlns:xlink="http://www.w3.org/1999/xlink" x="0px" y="0px"
	 viewBox="0 0 1500 1500" style="enable-background:new 0 0 1500 1500;" xml:space="preserve">
<style type="text/css">
	.st0{fill:#637E3B;}
	.st1{fill:#789948;}
	.st2{fill:#BED86D;}
	.st3{fill:#698D45;}
	.st4{fill:#87A947;}
	.st5{fill:#7D9D4A;}
	.st6{fill:none;stroke:#22221C;stroke-width:29.3112;stroke-linecap:round;stroke-linejoin:round;stroke-miterlimit:10;}
	.st7{fill:#494947;}
	.st8{fill:#5F5F5D;}
	.st9{fill:#262221;}
	.st10{fill:#90AE4E;}
	.st11{fill:#CFDD83;}
	.st12{fill:#719148;}
	.st13{fill:#DAE392;}
	.st14{fill:#BDD05B;}
	.st15{fill:#FFC233;}
	.st16{fill:none;stroke:#262221;stroke-width:22.3323;stroke-linecap:round;stroke-miterlimit:10;}
	.st17{fill:#009C53;}
	.st18{fill:#FFFFFF;}
</style>
<g>
	<path class="st0" d="M1016.2,402.8c0,0,26.7,15.9,7,38c0,0-42.5,45.1-142.4-16.6l38.9-180.6c0,0,14.1-9.2,30.5,15.7
		c0,0,2.2-37.5,39.7-43c0,0,26.8-2.2,27.7,30.8c0,0,29.5-48.1,57-20.4c0,0,16.9,26.8-20.6,55.3c0,0,43.8-14.5,41.4,23.4
		c0,0-4.2,30.4-42.5,35.5c0,0,27.7,0,28.7,22.4C1081.6,363.2,1074,403.2,1016.2,402.8z"/>
	<path class="st1" d="M1005.6,293.1c0,0-107.3,115.3-113.8,146.9l-18.5-26.4C873.3,413.6,976.4,300.3,1005.6,293.1z"/>
	<path class="st2" d="M580.7,411.3l32.9,38.8c0,0,144.4,6.2,149.1,5.8s127.9,8.9,127.9,8.9l11.6-77.1c0,0-27.5-58.8-29.3-59.7
		s-133.5,11.2-133.5,11.2L580.7,411.3z"/>
	<path class="st3" d="M783.5,131.8c0,0-16.3-26.7-38.7-3.9l-26.9,38.6l4,45c0,0,20.4,71,20.2,73.6c-0.2,2.6,12.5,36.2,11.1,38.9
		c-1.4,2.7,15.9,31.6,15.9,31.6l122.3,15.6l50.5-48.7c0,0-1-44.8-39-52.1c0,0,74.9-24.6,65.1-79.2c0,0-9.4-18.7-29.6-10
		c0,0,44.3-35.2,26.8-71.1c0,0-19.2-26.6-50.3,0.1c0,0,42-68.9-9.5-76c0,0-37.4-1.6-46.3,58.7c0,0-7.9-49.5-49-29.9
		C810.2,62.9,780.5,72.1,783.5,131.8z"/>
	<path class="st4" d="M863,143c0,0-71.4,186.7-104,215.6l41-0.9C800,357.6,871.5,176.5,863,143z"/>
	<path class="st5" d="M612.8,174.3c0,0-26.5-15.6-33.5,14.7l-2.8,46.1l25.6,37.2c0,0,51.9,52.1,53,54.4c1.2,2.3,28.1,25.6,28.4,28.6
		s28.6,20,28.6,20l107.5-43.5l17-65.8c0,0-23-38.4-57.7-27c0,0,48.9-56.3,13.7-99.1c0,0-17-11.9-29.1,5.1c0,0,18.6-51.2-13.5-74.2
		c0,0-28.8-14.2-40.9,23.5c0,0,0-79.4-45.5-61.6c0,0-31.3,16.1-8.5,72.5c0,0-31-39.3-54.8-3.1C600.3,102.1,580.7,123.9,612.8,174.3z
		"/>
	<path class="st6" d="M1082.4,797.6c0,0-34.7-51.4,8.4-53.7c0,0,23.8,99.4-36.5,141c-35.1,24.2-112,19.3-161.9-54.2"/>
	
		<ellipse transform="matrix(4.476949e-02 -0.999 0.999 4.476949e-02 338.2149 1906.7034)" class="st7" cx="1166.1" cy="776.5" rx="79" ry="45.5"/>
	<ellipse class="st8" cx="996" cy="765.4" rx="38.2" ry="60.9"/>
	
		<ellipse transform="matrix(4.476949e-02 -0.999 0.999 4.476949e-02 207.1183 1743.7784)" class="st7" cx="1015.4" cy="763.6" rx="79" ry="45.5"/>
	<ellipse class="st8" cx="1195.2" cy="780.4" rx="38.2" ry="60.9"/>
	<path class="st6" d="M1121.5,769.2c0,0-74-13.5-99.6-4.7"/>
	<path class="st6" d="M417.6,797.6c0,0,34.7-51.4-8.4-53.7c0,0-23.8,99.4,36.5,141c35.1,24.2,112,19.3,161.9-54.2"/>
	
		<ellipse transform="matrix(0.999 -4.476949e-02 4.476949e-02 0.999 -34.4286 15.7253)" class="st7" cx="333.9" cy="776.5" rx="45.5" ry="79"/>
	<ellipse class="st8" cx="504" cy="765.4" rx="38.2" ry="60.9"/>
	
		<ellipse transform="matrix(0.999 -4.476949e-02 4.476949e-02 0.999 -33.6994 22.4611)" class="st7" cx="484.6" cy="763.6" rx="45.5" ry="79"/>
	<ellipse class="st8" cx="304.8" cy="780.4" rx="38.2" ry="60.9"/>
	<path class="st6" d="M378.5,769.2c0,0,74-13.5,99.6-4.7"/>
	<ellipse class="st9" cx="287.1" cy="780.7" rx="16.1" ry="24.9"/>
	<ellipse class="st9" cx="1212.9" cy="780.7" rx="16.1" ry="24.9"/>
	<path class="st10" d="M908.9,229c0,0,29.9-36.5,45.3,13.4c0,0,4.3,34.3-17.5,50.1c0,0,30.9-9.4,29,26.2c0,0-4.3,42.3-43.7,63.2
		c0,0,29,2.9,23.5,36.2c0,0-9.5,32.8-30.6,39.5l-143-26.7c0,0-30.1-48.4-17.1-82.7c0,0,9.2-14.7,25.4-0.2c0,0-23.3-46.2-3.8-82.7
		c0,0,9.1-17.7,26.1-3.4c0,0-7.9-55.5,19.9-63.8c0,0,20.5-9.6,36.5,14.9c0,0,1.1-61.4,40.2-50.4C899,162.6,929.8,168,908.9,229z"/>
	<path class="st11" d="M873.3,262c0,0-48.2,143.1-49.3,175.7l-15.6-3.3C808.4,434.4,835.9,299.4,873.3,262z"/>
	<path class="st12" d="M475,351.3c0,0-32.6,10.1-17.3,38.7c0,0,33.8,59.1,156.3,18.8l4.9-202.9c0,0-12.7-13.4-36.6,8.9
		c0,0,7.3-40.7-31.4-56.2c0,0-28.1-9.2-37.5,25.8c0,0-19.2-59-55.7-36.5c0,0-24.9,24.3,7.9,64.4c0,0-43.1-26.7-50.2,14.3
		c0,0-3.3,33.5,36.3,48.9c0,0-29.6-7.2-36.4,16.6C415.2,292.2,413,336.9,475,351.3z"/>
	<path class="st1" d="M514.4,236.9c0,0,85,150.7,83.9,186.1l26.5-23.5C624.8,399.5,543.8,252,514.4,236.9z"/>
	<path class="st4" d="M686.1,148.2c0,0,34.6,195.4,22.4,235.6l33-19.9C741.5,363.9,709.8,173.4,686.1,148.2z"/>
	<path class="st6" d="M648.9,1158.2c0,0-47.5,147.5-7.9,291.3l-56.3,20.5"/>
	<path class="st6" d="M874.6,1158.2c0,0,47.5,147.5,7.9,291.3l56.3,20.5"/>
	<path class="st10" d="M599.5,251.8c0,0-24.7-34.1-40,10.2c0,0-5.1,30.7,13.3,45.8c0,0-26.5-9.8-26.3,22.4c0,0,2.1,38.3,35.6,58.8
		c0,0-25.4,1.5-21.9,31.7c0,0,7,30,25.1,36.8L711,439.3c0,0,28.1-42.4,18.1-73.9c0,0-7.4-13.7-22.1-1.2c0,0,22.1-40.7,6.5-74.4
		c0,0-7.2-16.3-22.6-4.1c0,0,9.1-49.7-14.9-58.3c0,0-17.4-9.5-32.3,11.9c0,0,1.4-55.4-33-47.1C610.7,192.3,583.7,196,599.5,251.8z"
		/>
	<path class="st13" d="M583.2,577.5l-13.8,463.1c0,0-5.3,94.8,81.8,141c0,0,139.7,64.1,237.4-16c0,0,48.8-48,51.2-90.5
		c7.1-126.6-14.9-506.9-14.9-506.9L583.2,577.5z"/>
	<path class="st11" d="M627.4,278.6c0,0,29.8,135.2,26.9,164.9l15.9-1.2C670.1,442.2,659.8,316.8,627.4,278.6z"/>
	<path class="st14" d="M680,569.6l-2.3,404.3c0,0-5,165.2,73.8,207c0,0-59.9-24.7-57.1-194.5l1.4-422.5L680,569.6z"/>
	<path class="st14" d="M826.1,569.6l2.3,404.3c0,0,5,165.2-73.8,207c0,0,59.9-24.7,57.1-194.5L810.3,564L826.1,569.6z"/>
	<path class="st15" d="M917.6,594.4c-248.8-31.1-310.2,0.7-335,3.8c-24.8,3.1-22-16.7-22-16.7c0.7-7.7,0.9-18.8,0.8-31.2
		c-0.2-22.9-1.4-50.3-2.3-69.3c-0.7-13.7-1.3-23-1.3-23c1.2-14.7,18.4-16.6,18.4-16.6c115.7-23.6,338.6-7.5,338.6-7.5
		c22.3-1.4,19.2,20.8,19.2,20.8c-0.6,3.6-0.6,12.4-0.3,23.7c0.7,21,2.5,50.4,3.9,70.3c0.9,12.8,1.5,21.7,1.5,21.7
		C942.6,594,917.6,594.4,917.6,594.4z"/>
	<circle class="st9" cx="677.8" cy="743.8" r="29"/>
	<circle class="st9" cx="831.4" cy="743.8" r="29"/>
	<path class="st16" d="M713.4,805.1c0,0,37,45.7,79.7,1"/>
	<path class="st17" d="M937.6,548.6c-263.3-18.1-343,3.3-376.2,6c-0.2-22.9-1.1-48.7-2-67.7c150.3-30.3,327.9-9.8,374.4-8.7
		C934.4,499.3,936.2,528.7,937.6,548.6z"/>
	<g>
		<path class="st18" d="M642,505.9L642,505.9c0,0-7.6-3.5-16.1,3.4c-8.4,7-4.9,18.5-4.9,18.5l0,0l7,8c0,0-5.4-4.2-3-15.7
			c0.7-3.6,2.4-6.9,5-9.5C635.9,504.4,642,505.9,642,505.9z"/>
		<path class="st18" d="M626.6,496.3c9.1-7.7,17.3-3.2,17.3-3.2s-4.7-8.8-17.5-4.5c-13.9,5.3-13.7,18.4-13.5,21
			c0.3,4.7,1.8,18.3,16,26.6l-0.1-0.1C614.3,521.5,619.1,501.8,626.6,496.3z"/>
		<path class="st18" d="M628.7,501.4c0,0,5.7-7.2,17-4c10.2,3.7,11.6,12.9,11.3,17c-0.3,3.7-1.3,5.9-3.5,9c-2.2,3.1-7.9,7-14.5,6.4
			c-8.2-0.8-10.9,5.1-7.2,8c-3.6-2.2-4.6-6.7-4.6-8.6s1.6-9.4,10-10.2c8.3-1.3,9.1-9,9.1-10.2c0-1.1-0.1-6.4-5.4-9
			C634,496.4,629.3,500.7,628.7,501.4z"/>
	</g>
	<g>
		<g>
			<g>
				<path class="st18" d="M677.5,511.2c-0.2-0.1-0.4-0.2-0.6-0.2c-3.4,0.2-6.9,0.4-10.3,0.5c-0.2,0-0.4,0.1-0.6,0.3
					c-0.2,0.2-0.2,0.4-0.2,0.6c0.3,5.2,0.6,10.4,0.9,15.5c0,0.2,0.1,0.4,0.3,0.6c0.2,0.2,0.4,0.2,0.6,0.2c0.3,0,0.4-0.1,0.6-0.3
					c0.1-0.2,0.2-0.4,0.2-0.6c-0.1-2.3-0.3-4.6-0.4-7c2.3-0.1,4.6-0.3,6.8-0.4c0.2,0,0.4-0.1,0.6-0.3c0.2-0.2,0.2-0.4,0.2-0.6
					c0-0.2-0.1-0.5-0.3-0.6c-0.2-0.1-0.4-0.2-0.6-0.2c-2.3,0.1-4.6,0.2-6.8,0.4c-0.1-2-0.2-4.1-0.3-6.1c3.1-0.2,6.3-0.3,9.4-0.5
					c0.2,0,0.4-0.1,0.6-0.3c0.2-0.2,0.2-0.4,0.2-0.6C677.8,511.6,677.7,511.4,677.5,511.2z"/>
				<path class="st18" d="M678,510.7c-0.3-0.3-0.7-0.4-1.1-0.4c-3.4,0.2-6.9,0.4-10.3,0.5c-0.4,0-0.8,0.2-1.1,0.5
					c-0.3,0.3-0.4,0.7-0.4,1.2c0.3,5.2,0.6,10.4,0.9,15.5c0,0.4,0.2,0.8,0.5,1.1c0.3,0.3,0.7,0.4,1.1,0.4c0.4,0,0.8-0.2,1.1-0.5
					c0.3-0.3,0.4-0.7,0.4-1.1c-0.1-2.1-0.2-4.2-0.4-6.3c2-0.1,4.1-0.2,6.1-0.3c0.4,0,0.8-0.2,1.1-0.5c0.3-0.3,0.4-0.7,0.4-1.1
					c0-0.4-0.2-0.8-0.5-1.1c-0.3-0.3-0.7-0.4-1.1-0.4c-2,0.1-4.1,0.2-6.1,0.3c-0.1-1.6-0.2-3.1-0.3-4.7c2.9-0.2,5.8-0.3,8.7-0.5
					c0.4,0,0.8-0.2,1.1-0.5c0.3-0.3,0.4-0.7,0.4-1.1C678.5,511.3,678.3,511,678,510.7z M677,511.9c-3.4,0.2-6.8,0.3-10.1,0.5
					c0.1,2.5,0.3,5,0.4,7.5c2.5-0.1,5-0.3,7.5-0.4c0,0,0.1,0.1,0.1,0.1c0,0-0.1,0.1-0.1,0.1c-2.5,0.1-5,0.3-7.5,0.4
					c0.1,2.6,0.3,5.1,0.4,7.7c0,0.1-0.1,0.1-0.1,0.2c0,0-0.1,0-0.1,0c-0.3-5.2-0.6-10.4-0.9-15.6c0-0.1,0.1-0.1,0.1-0.2
					c3.4-0.2,6.9-0.4,10.3-0.5c0.1,0,0.1,0.1,0.2,0.1C677.1,511.9,677,511.9,677,511.9z"/>
			</g>
			<g>
				<path class="st18" d="M692.9,518.3c-0.6-0.9-1.3-1.6-2.3-2.1c-1-0.5-2-0.7-3.1-0.7c-1.1,0.1-2.2,0.4-3.1,0.9
					c-0.9,0.6-1.6,1.4-2.1,2.3c-0.5,1-0.7,2-0.6,3.2c0.1,1.1,0.4,2.2,0.9,3.1c0.6,0.9,1.3,1.6,2.2,2.1c0.9,0.5,1.9,0.7,3,0.7
					c0.9,0,1.8-0.3,2.6-0.7c0.8-0.4,1.4-1,1.9-1.7c0,0.4,0,0.9,0.1,1.3c0,0.2,0.1,0.5,0.3,0.6c0.2,0.1,0.4,0.2,0.6,0.2
					c0.3,0,0.5-0.1,0.6-0.3c0.1-0.2,0.2-0.4,0.2-0.6c-0.1-1.7-0.1-3.5-0.2-5.2C693.8,520.3,693.5,519.3,692.9,518.3z M691.7,523.9
					c-0.4,0.7-0.9,1.3-1.5,1.7c-0.7,0.4-1.4,0.7-2.2,0.7c-0.8,0-1.6-0.1-2.3-0.5c-0.7-0.4-1.2-0.9-1.7-1.6c-0.4-0.7-0.6-1.5-0.7-2.3
					c0-0.9,0.1-1.7,0.5-2.4c0.4-0.7,0.9-1.3,1.5-1.7c0.7-0.4,1.4-0.7,2.2-0.7c0.8,0,1.6,0.1,2.3,0.5c0.7,0.4,1.2,0.9,1.7,1.6
					c0.4,0.7,0.6,1.4,0.7,2.3C692.2,522.4,692.1,523.2,691.7,523.9z"/>
				<path class="st18" d="M693.5,518c-0.6-1-1.5-1.8-2.6-2.4c-2.1-1.1-4.9-1-6.9,0.3c-1,0.6-1.8,1.5-2.3,2.6
					c-0.5,1.1-0.8,2.3-0.7,3.5c0.1,1.3,0.4,2.4,1,3.4c0.6,1,1.5,1.8,2.5,2.3c1,0.5,2.2,0.8,3.4,0.7c1,0,2-0.3,2.9-0.8
					c0.3-0.2,0.6-0.4,0.9-0.6c0.1,0.3,0.2,0.5,0.5,0.7c0.6,0.5,1.6,0.5,2.2-0.1c0.3-0.3,0.4-0.7,0.4-1.1c-0.1-1.7-0.1-3.5-0.2-5.2
					C694.5,520.1,694.2,519,693.5,518z M693.4,526.6c0,0-0.1,0.1-0.1,0.1c0,0-0.1-0.1-0.1-0.1c0-1.2-0.1-2.3-0.1-3.5
					c-0.1,0.2-0.3,0.4-0.4,0.6c0.3-0.7,0.4-1.4,0.4-2.3c0-1-0.3-1.9-0.8-2.7c-0.5-0.8-1.1-1.4-1.9-1.8c-1.6-0.9-3.7-0.8-5.2,0.2
					c-0.8,0.5-1.4,1.2-1.8,2c-0.4,0.8-0.6,1.7-0.5,2.7c0,1,0.3,1.9,0.8,2.7c0.5,0.8,1.1,1.4,1.9,1.8c1.6,0.8,3.7,0.7,5.2-0.2
					c-0.1,0.1-0.3,0.2-0.4,0.3c-1.4,0.8-3.4,0.9-4.9,0.1c-0.8-0.4-1.5-1-2-1.9c-0.5-0.8-0.8-1.7-0.8-2.7c-0.1-1,0.1-2,0.6-2.8
					c0.4-0.9,1-1.5,1.8-2c0.8-0.5,1.7-0.8,2.7-0.8c1,0,1.9,0.2,2.8,0.6c0.8,0.4,1.5,1.1,2,1.9c0.5,0.8,0.8,1.7,0.8,2.7
					C693.2,523.2,693.3,524.9,693.4,526.6z M691.5,521.5c0,0.8-0.1,1.4-0.4,2c-0.3,0.6-0.7,1.1-1.3,1.4c-1.1,0.7-2.6,0.8-3.8,0.2
					c-0.6-0.3-1-0.7-1.4-1.3c-0.4-0.6-0.6-1.2-0.6-2c0-0.7,0.1-1.4,0.4-2c0.3-0.6,0.7-1.1,1.3-1.5c0.6-0.4,1.2-0.6,1.9-0.6
					c0.7,0,1.3,0.1,1.9,0.4c0.6,0.3,1,0.7,1.4,1.3C691.3,520.1,691.5,520.8,691.5,521.5z"/>
			</g>
			<g>
				<path class="st18" d="M705,515.1c-0.4-0.2-0.9-0.2-1.5-0.2c-0.8,0-1.5,0.2-2.1,0.6c-0.6,0.4-1.2,0.9-1.6,1.5c0-0.3,0-0.7,0-1
					c0-0.3-0.1-0.5-0.2-0.6c-0.2-0.1-0.4-0.2-0.6-0.2c-0.3,0-0.5,0.1-0.6,0.2c-0.1,0.1-0.2,0.3-0.2,0.6c0.1,3.5,0.3,6.9,0.4,10.4
					c0,0.3,0.1,0.5,0.2,0.6c0.2,0.1,0.4,0.2,0.6,0.2c0.3,0,0.5-0.1,0.6-0.3c0.1-0.1,0.2-0.4,0.2-0.6c-0.1-2.2-0.2-4.4-0.3-6.6
					c0-0.9,0.3-1.7,1-2.3c0.7-0.6,1.6-0.9,2.6-1c0.2,0,0.4,0,0.5,0c0.3,0,0.5,0,0.7,0c0.2,0,0.4,0,0.5-0.1c0.1-0.1,0.2-0.2,0.3-0.4
					c0,0,0-0.1,0-0.2C705.5,515.4,705.3,515.2,705,515.1z"/>
				<path class="st18" d="M705.2,514.4c-1-0.4-2.8-0.3-4.2,0.4c-0.2,0.1-0.5,0.3-0.7,0.5c-0.1-0.2-0.2-0.3-0.3-0.5
					c-0.2-0.2-0.6-0.4-1.1-0.4c-0.6,0-0.9,0.3-1.1,0.5c-0.2,0.2-0.4,0.6-0.4,1.1c0.1,3.5,0.3,6.9,0.4,10.4c0,0.6,0.3,0.9,0.5,1.1
					c0.2,0.2,0.6,0.4,1.1,0.4c0.6,0,0.9-0.3,1.1-0.5c0.2-0.2,0.4-0.6,0.4-1.1c-0.1-2.2-0.2-4.4-0.3-6.6c0-0.7,0.2-1.3,0.7-1.8
					c0.6-0.5,1.3-0.8,2.2-0.8c0.2,0,0.3,0,0.5,0c0.4,0,0.6,0,0.7,0c0.4,0,0.6-0.1,0.9-0.2c0.3-0.2,0.5-0.5,0.6-0.8
					c0-0.1,0-0.3,0-0.4C706.2,515.4,706.1,514.8,705.2,514.4z M704.1,515.8c-0.1,0-0.3,0-0.6,0c-0.7,0-1.3,0.1-1.9,0.4
					c0,0,0.1,0,0.1-0.1c0.6-0.3,1.1-0.5,1.8-0.5c0.6,0,1,0.1,1.2,0.1c0,0,0.1,0,0.1,0.1C704.7,515.8,704.5,515.8,704.1,515.8z
					 M699.2,519.8c0.1,2.2,0.2,4.4,0.3,6.6c0,0-0.1,0.1-0.1,0.1c0,0-0.1-0.1-0.1-0.1c-0.1-3.5-0.3-6.9-0.4-10.4c0,0,0.1-0.1,0.1-0.1
					c0,0,0.1,0.1,0.1,0.1c0,1.1,0.1,2.2,0.1,3.2c0,0,0,0,0-0.1C699.2,519.4,699.2,519.6,699.2,519.8z"/>
			</g>
			<g>
				<path class="st18" d="M725.8,516.6c-0.4-0.7-0.9-1.3-1.6-1.7c-0.7-0.4-1.4-0.6-2.3-0.6c-0.8,0-1.6,0.2-2.3,0.6
					c-0.7,0.4-1.2,0.9-1.6,1.6c-0.4-0.6-0.9-1.1-1.6-1.5c-0.7-0.3-1.4-0.5-2.2-0.5c-0.7,0-1.3,0.2-1.8,0.4c-0.6,0.3-1,0.7-1.4,1.1
					c0-0.2,0-0.3,0-0.5c0-0.3-0.1-0.4-0.3-0.6c-0.2-0.2-0.4-0.2-0.6-0.2c-0.3,0-0.5,0.1-0.6,0.3c-0.1,0.2-0.2,0.4-0.2,0.6
					c0.1,3.4,0.2,6.9,0.3,10.3c0,0.2,0.1,0.4,0.3,0.6c0.2,0.2,0.4,0.2,0.6,0.2c0.2,0,0.4-0.1,0.6-0.2c0.1-0.2,0.2-0.4,0.2-0.6
					c-0.1-2.2-0.1-4.3-0.2-6.5c0-0.9,0.2-1.7,0.8-2.3c0.6-0.6,1.3-0.9,2.2-1c0.9,0,1.6,0.3,2.1,0.9c0.6,0.6,0.8,1.4,0.9,2.4
					c0.1,2.1,0.1,4.2,0.2,6.3c0,0.2,0.1,0.4,0.3,0.6c0.2,0.2,0.4,0.2,0.6,0.2c0.2,0,0.4-0.1,0.6-0.2c0.1-0.2,0.2-0.4,0.2-0.6
					c-0.1-2.1-0.1-4.2-0.2-6.4c0-1,0.2-1.8,0.8-2.4c0.5-0.6,1.3-1,2.2-1c0.9,0,1.6,0.3,2.1,0.9c0.5,0.6,0.8,1.4,0.9,2.4
					c0.1,2.1,0.1,4.2,0.2,6.3c0,0.2,0.1,0.4,0.3,0.6c0.2,0.2,0.4,0.2,0.6,0.2c0.3,0,0.4-0.1,0.6-0.2c0.1-0.2,0.2-0.4,0.2-0.6
					c0-2.1-0.1-4.2-0.1-6.3C726.4,518.2,726.2,517.3,725.8,516.6z"/>
				<path class="st18" d="M726.4,516.3c-0.5-0.9-1.1-1.5-1.9-2c-1.6-0.9-3.7-0.9-5.3,0c-0.5,0.3-0.9,0.6-1.3,1
					c-0.4-0.4-0.8-0.7-1.2-1c-1.4-0.7-3.2-0.8-4.7-0.1c-0.2,0.1-0.5,0.3-0.7,0.4c-0.1-0.1-0.1-0.2-0.2-0.2c-0.6-0.6-1.7-0.6-2.2,0.1
					c-0.3,0.3-0.4,0.7-0.4,1.1c0.1,3.4,0.2,6.9,0.3,10.3c0,0.4,0.2,0.8,0.5,1.1c0.6,0.5,1.6,0.5,2.2-0.1c0.3-0.3,0.4-0.7,0.4-1.1
					c-0.1-2.2-0.1-4.3-0.2-6.5c0-0.7,0.2-1.3,0.6-1.8c0.4-0.5,1-0.7,1.7-0.7c0.6,0,1.2,0.2,1.6,0.6c0.4,0.5,0.7,1.1,0.7,2
					c0.1,2.1,0.1,4.2,0.2,6.3c0,0.4,0.2,0.8,0.5,1.1c0.6,0.5,1.6,0.5,2.2-0.1c0.3-0.3,0.4-0.7,0.4-1.1c-0.1-2.1-0.1-4.2-0.2-6.4
					c0-0.8,0.2-1.4,0.6-1.9c0.4-0.5,1-0.7,1.7-0.7c0.7,0,1.2,0.2,1.6,0.6c0.4,0.5,0.7,1.1,0.7,2c0.1,2.1,0.1,4.2,0.2,6.3
					c0,0.4,0.2,0.8,0.5,1.1c0.3,0.3,0.7,0.4,1.1,0.4c0.4,0,0.8-0.2,1.1-0.5c0.3-0.3,0.4-0.7,0.4-1.1c0-2.1-0.1-4.2-0.1-6.3
					C727.1,518.1,726.9,517.1,726.4,516.3z M724.4,516.3c-0.7-0.7-1.6-1.1-2.7-1.1c-1.1,0-2,0.4-2.7,1.2c-0.7,0.8-1,1.7-0.9,3
					c0.1,2.1,0.1,4.2,0.2,6.3c0,0-0.1,0.1-0.1,0.1c0,0-0.1-0.1-0.1-0.1c-0.1-2.1-0.1-4.2-0.2-6.3c0-1.2-0.4-2.2-1.1-2.9
					c-0.7-0.7-1.6-1.1-2.6-1.1c-0.8,0-1.5,0.3-2.1,0.7c0.2-0.2,0.5-0.4,0.8-0.5c1-0.5,2.4-0.5,3.4,0c0.5,0.3,1,0.7,1.3,1.2
					c0.2,0.3,0.4,0.6,0.6,1c0.2-0.3,0.4-0.7,0.6-1c0.3-0.6,0.8-1,1.4-1.3c0.6-0.3,1.2-0.5,1.9-0.5c0.7,0,1.4,0.1,2,0.5
					c0.6,0.3,1,0.8,1.3,1.4c0.3,0.6,0.5,1.4,0.5,2.3c0,2.1,0.1,4.2,0.1,6.3c0,0-0.1,0.1-0.1,0.1c0,0-0.1-0.1-0.1-0.1
					c0-2.1-0.1-4.2-0.1-6.3C725.4,518,725.1,517,724.4,516.3z M710.7,526c0,0-0.1,0.1-0.1,0.1c-0.1,0-0.1-0.1-0.2-0.1
					c-0.1-3.4-0.2-6.9-0.3-10.3c0.1-0.1,0.1-0.1,0.1-0.2c0,0.1,0.1,0.1,0.1,0.2c0,0.8,0.1,1.6,0.1,2.4c0.2-0.2,0.3-0.4,0.5-0.6
					c-0.3,0.6-0.5,1.3-0.4,2C710.5,521.6,710.6,523.8,710.7,526z"/>
			</g>
			<g>
				<path class="st18" d="M751.6,522.8c-0.2,0-0.3,0.1-0.5,0.2c-1.3,1-2.7,1.5-4.3,1.6c-1.2,0-2.4-0.3-3.4-0.9
					c-1-0.6-1.9-1.5-2.5-2.6c-0.6-1.1-1-2.3-1-3.6c0-1.3,0.3-2.4,0.9-3.6c0.6-1.1,1.4-2,2.5-2.6c1-0.7,2.2-1,3.4-1
					c0.9,0,1.7,0.1,2.4,0.3c0.7,0.2,1.3,0.6,1.9,1.1c0.1,0.1,0.3,0.2,0.6,0.2c0.1,0,0.2,0,0.3-0.1c0.1-0.1,0.2-0.1,0.2-0.2
					c0.1-0.1,0.2-0.1,0.2-0.2c0.1-0.1,0.1-0.2,0.1-0.3c0-0.2-0.1-0.4-0.2-0.5c-0.8-0.7-1.7-1.1-2.5-1.4c-0.9-0.3-1.8-0.4-2.9-0.4
					c-1.6,0-3,0.4-4.3,1.2c-1.3,0.8-2.3,1.9-3,3.2c-0.7,1.3-1.1,2.8-1.1,4.4c0,1.6,0.4,3,1.2,4.4c0.8,1.3,1.8,2.4,3.1,3.1
					c1.3,0.8,2.7,1.1,4.3,1.1c2.2,0,4-0.7,5.3-1.9c0.2-0.2,0.2-0.4,0.2-0.6c0-0.2-0.1-0.4-0.2-0.6
					C752,522.9,751.9,522.8,751.6,522.8z"/>
				<path class="st18" d="M750.7,522.4c-1.2,0.9-2.4,1.4-3.8,1.4c-1.1,0-2.1-0.3-3.1-0.8c-0.9-0.6-1.7-1.3-2.3-2.3
					c-0.6-1-0.9-2.1-0.9-3.2c0-1.1,0.2-2.2,0.8-3.2c0.5-1,1.3-1.8,2.2-2.4c0.9-0.6,1.9-0.9,3-0.9c0.8,0,1.5,0.1,2.1,0.3
					c0.6,0.2,1.1,0.5,1.6,1c0.5,0.4,1.1,0.5,1.7,0.2c0.2-0.1,0.3-0.2,0.4-0.4c0.1-0.1,0.2-0.2,0.3-0.3c0.1-0.2,0.2-0.4,0.2-0.7
					c0-0.4-0.2-0.8-0.5-1c-0.9-0.7-1.8-1.2-2.7-1.6c-0.9-0.3-2-0.5-3.1-0.5c-1.7,0-3.3,0.5-4.6,1.3c-1.4,0.9-2.5,2-3.3,3.5
					c-0.8,1.5-1.2,3.1-1.2,4.7c0,1.7,0.5,3.3,1.3,4.7c0.8,1.4,2,2.6,3.4,3.4c1.4,0.8,3,1.2,4.6,1.2c2.4,0,4.3-0.7,5.8-2.2
					c0.3-0.3,0.4-0.7,0.4-1.1c0-0.4-0.2-0.8-0.5-1.1C752.2,522,751.4,521.9,750.7,522.4z M751.7,523.7c-1.2,1.1-2.8,1.7-4.9,1.7
					c-1.4,0-2.7-0.3-3.9-1c-1.2-0.7-2.2-1.7-2.9-2.9c-0.7-1.2-1.1-2.6-1.1-4c0-1.4,0.3-2.8,1-4c0.7-1.2,1.6-2.2,2.8-3
					c1.2-0.7,2.5-1.1,3.9-1.1c1,0,1.9,0.1,2.6,0.4c0.8,0.3,1.5,0.7,2.2,1.2c0,0-0.1,0-0.1,0.1c0,0,0,0.1,0,0.1
					c-0.7-0.6-1.4-1-2.1-1.2c-0.8-0.2-1.6-0.4-2.6-0.4c-1.4,0-2.6,0.4-3.8,1.1c-1.1,0.7-2,1.7-2.7,2.9c-0.7,1.2-1,2.5-1,3.9
					c0,1.4,0.4,2.7,1.1,3.9c0.7,1.2,1.6,2.1,2.8,2.8c1.2,0.7,2.4,1,3.8,1c1.7,0,3.3-0.6,4.8-1.7
					C751.7,523.6,751.7,523.6,751.7,523.7C751.8,523.7,751.7,523.7,751.7,523.7z"/>
			</g>
			<g>
				<path class="st18" d="M767.1,516.8c-0.5-0.9-1.3-1.6-2.2-2.2c-0.9-0.5-2-0.8-3.1-0.8c-1.1,0-2.2,0.3-3.1,0.8
					c-0.9,0.5-1.7,1.3-2.2,2.2c-0.5,0.9-0.8,2-0.8,3.1c0,1.1,0.3,2.2,0.8,3.1c0.5,0.9,1.3,1.6,2.2,2.2c0.9,0.5,2,0.8,3.1,0.8
					c1.1,0,2.2-0.3,3.1-0.8c0.9-0.5,1.6-1.2,2.2-2.2c0.5-0.9,0.8-2,0.8-3.1C767.9,518.8,767.6,517.7,767.1,516.8z M766.2,519.9
					c0,0.9-0.2,1.6-0.6,2.3c-0.4,0.7-0.9,1.2-1.6,1.6c-0.7,0.4-1.4,0.6-2.3,0.6c-0.8,0-1.6-0.2-2.3-0.6c-0.7-0.4-1.2-0.9-1.6-1.6
					c-0.4-0.7-0.6-1.5-0.6-2.3c0-0.9,0.2-1.7,0.6-2.3c0.4-0.7,0.9-1.2,1.6-1.6c0.7-0.4,1.4-0.6,2.3-0.6c0.9,0,1.6,0.2,2.3,0.6
					c0.7,0.4,1.2,0.9,1.6,1.6C766,518.2,766.2,519,766.2,519.9z"/>
				<path class="st18" d="M766.3,517.2c-0.4-0.8-1.1-1.4-1.8-1.9c-1.5-0.9-3.7-0.9-5.3,0c-0.8,0.5-1.4,1.1-1.8,1.9
					c-0.4,0.8-0.7,1.7-0.6,2.7c0,1,0.2,1.9,0.7,2.7c0.5,0.8,1.1,1.4,1.9,1.9c0.8,0.4,1.7,0.7,2.6,0.7c1,0,1.8-0.2,2.6-0.7
					c0.8-0.5,1.4-1.1,1.8-1.9c0.4-0.8,0.7-1.7,0.7-2.7C766.9,518.9,766.7,518,766.3,517.2z M765,521.9c-0.3,0.6-0.7,1-1.3,1.4
					c-1.1,0.7-2.7,0.7-3.8,0c-0.6-0.3-1-0.8-1.3-1.4c-0.3-0.6-0.5-1.2-0.5-2c0-0.8,0.1-1.4,0.5-2c0.3-0.6,0.8-1,1.3-1.4
					c0.6-0.3,1.2-0.5,1.9-0.5c0.7,0,1.4,0.2,1.9,0.5c0.6,0.3,1,0.8,1.3,1.4c0.3,0.6,0.5,1.3,0.5,2
					C765.5,520.6,765.3,521.3,765,521.9z M766.3,517.2c-0.4-0.8-1.1-1.4-1.8-1.9c-1.5-0.9-3.7-0.9-5.3,0c-0.8,0.5-1.4,1.1-1.8,1.9
					c-0.4,0.8-0.7,1.7-0.6,2.7c0,1,0.2,1.9,0.7,2.7c0.5,0.8,1.1,1.4,1.9,1.9c0.8,0.4,1.7,0.7,2.6,0.7c1,0,1.8-0.2,2.6-0.7
					c0.8-0.5,1.4-1.1,1.8-1.9c0.4-0.8,0.7-1.7,0.7-2.7C766.9,518.9,766.7,518,766.3,517.2z M765,521.9c-0.3,0.6-0.7,1-1.3,1.4
					c-1.1,0.7-2.7,0.7-3.8,0c-0.6-0.3-1-0.8-1.3-1.4c-0.3-0.6-0.5-1.2-0.5-2c0-0.8,0.1-1.4,0.5-2c0.3-0.6,0.8-1,1.3-1.4
					c0.6-0.3,1.2-0.5,1.9-0.5c0.7,0,1.4,0.2,1.9,0.5c0.6,0.3,1,0.8,1.3,1.4c0.3,0.6,0.5,1.3,0.5,2
					C765.5,520.6,765.3,521.3,765,521.9z M767.7,516.4c-0.6-1-1.4-1.9-2.4-2.4c-2-1.2-4.9-1.2-6.9,0c-1,0.6-1.9,1.4-2.4,2.4
					c-0.6,1-0.9,2.2-0.8,3.5c0,1.3,0.3,2.4,0.9,3.5c0.6,1,1.4,1.8,2.4,2.4c1,0.6,2.2,0.9,3.4,0.9c1.3,0,2.4-0.3,3.5-0.9
					c1-0.6,1.8-1.4,2.4-2.4c0.6-1,0.9-2.2,0.9-3.5C768.6,518.6,768.3,517.5,767.7,516.4z M759.1,524.6c-0.8-0.5-1.4-1.1-1.9-1.9
					c-0.5-0.8-0.7-1.7-0.7-2.8c0-1,0.2-1.9,0.7-2.8c0.5-0.8,1.1-1.4,1.9-1.9c1.6-0.9,3.9-0.9,5.5,0c0.8,0.5,1.4,1.1,1.9,1.9
					c0.5,0.8,0.7,1.7,0.7,2.8c0,1-0.2,1.9-0.7,2.8c-0.5,0.8-1.1,1.4-1.9,1.9C763,525.5,760.7,525.5,759.1,524.6z M766.9,519.9
					c0-1-0.2-1.9-0.7-2.7c-0.4-0.8-1.1-1.4-1.8-1.9c-1.5-0.9-3.7-0.9-5.3,0c-0.8,0.5-1.4,1.1-1.8,1.9c-0.4,0.8-0.7,1.7-0.6,2.7
					c0,1,0.2,1.9,0.7,2.7c0.5,0.8,1.1,1.4,1.9,1.9c0.8,0.4,1.7,0.7,2.6,0.7c1,0,1.8-0.2,2.6-0.7c0.8-0.5,1.4-1.1,1.8-1.9
					C766.7,521.8,766.9,520.9,766.9,519.9z M765,521.9c-0.3,0.6-0.7,1-1.3,1.4c-1.1,0.7-2.7,0.7-3.8,0c-0.6-0.3-1-0.8-1.3-1.4
					c-0.3-0.6-0.5-1.2-0.5-2c0-0.8,0.1-1.4,0.5-2c0.3-0.6,0.8-1,1.3-1.4c0.6-0.3,1.2-0.5,1.9-0.5c0.7,0,1.4,0.2,1.9,0.5
					c0.6,0.3,1,0.8,1.3,1.4c0.3,0.6,0.5,1.3,0.5,2C765.5,520.6,765.3,521.3,765,521.9z M766.3,517.2c-0.4-0.8-1.1-1.4-1.8-1.9
					c-1.5-0.9-3.7-0.9-5.3,0c-0.8,0.5-1.4,1.1-1.8,1.9c-0.4,0.8-0.7,1.7-0.6,2.7c0,1,0.2,1.9,0.7,2.7c0.5,0.8,1.1,1.4,1.9,1.9
					c0.8,0.4,1.7,0.7,2.6,0.7c1,0,1.8-0.2,2.6-0.7c0.8-0.5,1.4-1.1,1.8-1.9c0.4-0.8,0.7-1.7,0.7-2.7
					C766.9,518.9,766.7,518,766.3,517.2z M765,521.9c-0.3,0.6-0.7,1-1.3,1.4c-1.1,0.7-2.7,0.7-3.8,0c-0.6-0.3-1-0.8-1.3-1.4
					c-0.3-0.6-0.5-1.2-0.5-2c0-0.8,0.1-1.4,0.5-2c0.3-0.6,0.8-1,1.3-1.4c0.6-0.3,1.2-0.5,1.9-0.5c0.7,0,1.4,0.2,1.9,0.5
					c0.6,0.3,1,0.8,1.3,1.4c0.3,0.6,0.5,1.3,0.5,2C765.5,520.6,765.3,521.3,765,521.9z M766.3,517.2c-0.4-0.8-1.1-1.4-1.8-1.9
					c-1.5-0.9-3.7-0.9-5.3,0c-0.8,0.5-1.4,1.1-1.8,1.9c-0.4,0.8-0.7,1.7-0.6,2.7c0,1,0.2,1.9,0.7,2.7c0.5,0.8,1.1,1.4,1.9,1.9
					c0.8,0.4,1.7,0.7,2.6,0.7c1,0,1.8-0.2,2.6-0.7c0.8-0.5,1.4-1.1,1.8-1.9c0.4-0.8,0.7-1.7,0.7-2.7
					C766.9,518.9,766.7,518,766.3,517.2z M765,521.9c-0.3,0.6-0.7,1-1.3,1.4c-1.1,0.7-2.7,0.7-3.8,0c-0.6-0.3-1-0.8-1.3-1.4
					c-0.3-0.6-0.5-1.2-0.5-2c0-0.8,0.1-1.4,0.5-2c0.3-0.6,0.8-1,1.3-1.4c0.6-0.3,1.2-0.5,1.9-0.5c0.7,0,1.4,0.2,1.9,0.5
					c0.6,0.3,1,0.8,1.3,1.4c0.3,0.6,0.5,1.3,0.5,2C765.5,520.6,765.3,521.3,765,521.9z"/>
			</g>
			<g>
				<path class="st18" d="M782.7,516.4c-0.5-0.8-1.1-1.5-1.9-1.9c-0.8-0.4-1.8-0.7-2.8-0.7c-0.8,0-1.5,0.1-2.2,0.4
					c-0.7,0.3-1.3,0.7-1.8,1.3c0-0.2,0-0.5,0-0.7c0-0.3-0.1-0.4-0.2-0.6c-0.2-0.2-0.4-0.2-0.6-0.2c-0.2,0-0.5,0.1-0.6,0.2
					c-0.2,0.2-0.2,0.4-0.2,0.6c0,3.4,0,6.8,0,10.2c0,0.2,0.1,0.4,0.2,0.6c0.2,0.2,0.4,0.2,0.6,0.2c0.3,0,0.4-0.1,0.6-0.2
					c0.2-0.2,0.2-0.4,0.2-0.6c0-2.1,0-4.3,0-6.4c0-0.6,0.2-1.1,0.5-1.6c0.3-0.5,0.8-0.9,1.4-1.1c0.6-0.3,1.2-0.4,1.9-0.4
					c1.2,0,2.1,0.4,2.8,1c0.7,0.7,1.1,1.7,1.1,2.9c0,1.9,0,3.8-0.1,5.6c0,0.2,0.1,0.4,0.2,0.6c0.2,0.2,0.4,0.2,0.6,0.2
					c0.2,0,0.4-0.1,0.6-0.2c0.2-0.2,0.2-0.4,0.2-0.6c0-1.9,0-3.8,0.1-5.6C783.4,518.3,783.2,517.3,782.7,516.4z"/>
				<path class="st18" d="M783.4,516.1c-0.5-1-1.3-1.7-2.2-2.2c-1.6-0.9-3.9-1-5.6-0.3c-0.3,0.1-0.6,0.3-0.9,0.5
					c-0.1-0.2-0.2-0.3-0.3-0.4c-0.6-0.6-1.6-0.6-2.2,0c-0.3,0.3-0.5,0.7-0.5,1.1c0,3.4,0,6.8,0,10.2c0,0.4,0.2,0.8,0.4,1.1
					c0.6,0.6,1.6,0.5,2.2,0c0.3-0.3,0.5-0.7,0.5-1.1c0-2.1,0-4.3,0-6.4c0-0.4,0.1-0.9,0.4-1.2c0.3-0.4,0.6-0.7,1.1-0.9
					c0.5-0.2,1-0.3,1.6-0.3c1,0,1.8,0.3,2.3,0.8c0.6,0.5,0.9,1.3,0.9,2.4c0,1.9,0,3.8,0,5.6c0,0.4,0.1,0.8,0.4,1.1
					c0.3,0.3,0.7,0.5,1.1,0.5c0.4,0,0.8-0.1,1.1-0.4c0.3-0.3,0.4-0.7,0.4-1.1c0-1.9,0-3.8,0.1-5.6
					C784.1,518.2,783.9,517.1,783.4,516.1z M781.2,516c-0.9-0.8-2-1.2-3.3-1.2c-0.8,0-1.6,0.2-2.2,0.5c-0.1,0-0.2,0.1-0.3,0.2
					c0.2-0.2,0.5-0.3,0.8-0.4c1.4-0.6,3.1-0.5,4.4,0.2c0.7,0.4,1.2,0.9,1.6,1.6c0.4,0.7,0.6,1.6,0.6,2.6c0,1.9,0,3.8-0.1,5.6
					c0,0-0.1,0.1-0.1,0.1c0,0-0.1-0.1-0.1-0.1c0-1.9,0-3.8,0.1-5.6C782.4,518,782,516.8,781.2,516z M773.3,518.6c0,2.1,0,4.3,0,6.4
					c0,0-0.1,0.1-0.1,0.1c0,0-0.1-0.1-0.1-0.1c0-3.4,0-6.8,0-10.2c0-0.1,0.1-0.1,0.1-0.2c0,0.1,0.1,0.1,0.1,0.2c0,0.9,0,1.7,0,2.6
					c0.1-0.2,0.3-0.3,0.4-0.5C773.5,517.4,773.3,518,773.3,518.6z"/>
			</g>
			<g>
				<path class="st18" d="M798.7,516.7c-0.4-0.8-1.1-1.5-1.9-1.9c-0.8-0.4-1.7-0.7-2.8-0.7c-0.8,0-1.6,0.1-2.2,0.4
					c-0.7,0.3-1.3,0.7-1.8,1.2c0-0.2,0-0.5,0-0.7c0-0.3-0.1-0.4-0.2-0.6c-0.2-0.2-0.3-0.2-0.6-0.2c-0.3,0-0.5,0.1-0.6,0.2
					c-0.2,0.2-0.3,0.4-0.3,0.6c0,3.4-0.1,6.8-0.1,10.2c0,0.2,0.1,0.4,0.2,0.6c0.2,0.2,0.3,0.2,0.6,0.2c0.3,0,0.4-0.1,0.6-0.2
					c0.2-0.2,0.2-0.4,0.2-0.6c0-2.1,0.1-4.3,0.1-6.4c0-0.6,0.2-1.1,0.5-1.6c0.3-0.5,0.8-0.9,1.4-1.1c0.6-0.3,1.2-0.4,1.9-0.4
					c1.2,0,2.1,0.4,2.8,1.1c0.7,0.7,1.1,1.7,1,2.9c0,1.9-0.1,3.8-0.1,5.6c0,0.2,0.1,0.4,0.2,0.6c0.2,0.2,0.4,0.2,0.6,0.2
					c0.2,0,0.4-0.1,0.6-0.2c0.2-0.2,0.2-0.4,0.2-0.6c0-1.9,0.1-3.7,0.1-5.6C799.4,518.5,799.2,517.5,798.7,516.7z"/>
				<path class="st18" d="M799.4,516.4c-0.5-1-1.2-1.7-2.2-2.2c-1.6-0.9-3.9-1.1-5.6-0.3c-0.3,0.1-0.6,0.3-0.9,0.5
					c-0.1-0.2-0.2-0.3-0.3-0.4c-0.6-0.6-1.6-0.6-2.2,0c-0.3,0.3-0.5,0.7-0.5,1.1c0,3.4-0.1,6.8-0.1,10.2c0,0.4,0.2,0.8,0.4,1.1
					c0.6,0.6,1.6,0.6,2.2,0c0.3-0.3,0.4-0.6,0.4-1.1c0-2.1,0.1-4.3,0.1-6.4c0-0.4,0.1-0.8,0.4-1.2c0.3-0.4,0.6-0.7,1.1-0.9
					c0.5-0.2,1-0.3,1.6-0.3c1,0,1.8,0.3,2.3,0.9c0.6,0.6,0.8,1.3,0.8,2.4c0,1.9-0.1,3.8-0.1,5.6c0,0.4,0.1,0.8,0.4,1.1
					c0.3,0.3,0.7,0.5,1.1,0.5c0.4,0,0.8-0.1,1.1-0.4c0.3-0.3,0.5-0.6,0.5-1.1c0-1.9,0.1-3.7,0.1-5.6
					C800.1,518.4,799.9,517.3,799.4,516.4z M797.2,516.2c-0.8-0.8-1.9-1.2-3.3-1.3c-0.8,0-1.6,0.1-2.2,0.5c-0.1,0-0.2,0.1-0.3,0.1
					c0.2-0.2,0.5-0.3,0.8-0.4c1.4-0.6,3.1-0.4,4.4,0.3c0.7,0.4,1.2,0.9,1.6,1.6c0.4,0.7,0.6,1.6,0.6,2.6c0,1.9-0.1,3.8-0.1,5.6
					c0,0-0.1,0.1-0.1,0.1c-0.1,0-0.1-0.1-0.2-0.1c0-1.9,0.1-3.8,0.1-5.6C798.4,518.2,798,517,797.2,516.2z M789.3,518.7
					c0,2.1-0.1,4.3-0.1,6.4c0,0-0.1,0.1-0.1,0.1c-0.1,0-0.1-0.1-0.2-0.1c0-3.4,0.1-6.8,0.1-10.2c0.1-0.1,0.1-0.1,0.2-0.2
					c0,0.1,0.1,0.1,0.1,0.2c0,0.9,0,1.7,0,2.6c0.1-0.2,0.3-0.3,0.4-0.5C789.5,517.6,789.3,518.1,789.3,518.7z"/>
			</g>
			<g>
				<path class="st18" d="M814.2,517.3c-0.4-0.9-1.1-1.6-1.9-2.1c-0.8-0.5-1.8-0.8-2.8-0.8c-1.1,0-2.1,0.2-3,0.7
					c-0.9,0.5-1.6,1.2-2.1,2.1c-0.5,0.9-0.8,1.9-0.8,3.1c0,1.2,0.2,2.2,0.7,3.1c0.5,0.9,1.2,1.7,2.1,2.2c0.9,0.5,1.9,0.8,3.1,0.8
					c0.7,0,1.4-0.1,2.1-0.3c0.7-0.2,1.4-0.6,1.9-0.9c0.2-0.1,0.2-0.3,0.3-0.5c0-0.2-0.1-0.4-0.3-0.6c-0.2-0.1-0.3-0.2-0.5-0.2
					c-0.2,0-0.4,0.1-0.6,0.2c-0.3,0.3-0.8,0.5-1.3,0.6c-0.5,0.2-1.1,0.2-1.6,0.2c-1.2,0-2.2-0.4-3-1.2c-0.8-0.8-1.2-1.7-1.3-2.9
					c2.9,0.1,5.9,0.1,8.8,0.2c0.2,0,0.4-0.1,0.6-0.2c0.2-0.1,0.2-0.3,0.2-0.5C814.9,519.2,814.7,518.2,814.2,517.3z M805.3,519.5
					c0.2-1.1,0.6-2,1.4-2.6c0.7-0.7,1.7-1,2.8-0.9c1.1,0,2,0.4,2.7,1.1c0.7,0.7,1.1,1.6,1.1,2.7C810.6,519.6,808,519.6,805.3,519.5z
					"/>
				<path class="st18" d="M815.1,521.4c0.3-0.3,0.5-0.6,0.5-1c0-1.2-0.2-2.3-0.7-3.3c-0.5-1-1.2-1.8-2.1-2.4
					c-1.9-1.2-4.6-1.2-6.6-0.1c-1,0.5-1.8,1.3-2.3,2.3c-0.6,1-0.9,2.1-0.9,3.4c0,1.3,0.2,2.4,0.8,3.5c0.6,1,1.3,1.9,2.4,2.5
					c1,0.6,2.2,0.9,3.4,0.9c0.8,0,1.6-0.1,2.4-0.4c0.8-0.3,1.5-0.6,2.1-1.1c0.3-0.3,0.5-0.6,0.5-1c0-0.3-0.1-0.7-0.5-1.2
					c-0.6-0.4-1.3-0.4-1.9,0c-0.3,0.2-0.6,0.4-1.1,0.5c-0.5,0.1-0.9,0.2-1.4,0.2c-1,0-1.9-0.3-2.6-1c-0.5-0.5-0.8-1-1-1.7
					c2.7,0.1,5.3,0.1,8,0.2C814.4,521.8,814.8,521.7,815.1,521.4z M813.1,524.6c-0.4,0.3-1,0.6-1.6,0.8c-1.8,0.6-3.4,0.3-4.6-0.4
					c-0.8-0.5-1.4-1.1-1.8-1.9c-0.4-0.8-0.6-1.7-0.6-2.8c0-1,0.3-2,0.7-2.8c0.5-0.8,1-1.4,1.8-1.8c0.8-0.4,1.6-0.6,2.6-0.6
					c0.9,0,1.8,0.3,2.5,0.7c0.7,0.4,1.3,1,1.6,1.8c0.4,0.8,0.6,1.7,0.4,2.8c0-0.3,0-0.5-0.1-0.8c-0.1-1.3-0.6-2.3-1.3-3.1
					c-0.8-0.8-1.9-1.3-3.1-1.3c-1.3,0-2.4,0.3-3.3,1.1c-0.9,0.8-1.4,1.8-1.6,3.1c0,0.3-0.1,0.5-0.1,0.8c0,0,0,0,0,0
					c0,0.3,0,0.5,0.1,0.8c0.1,1.3,0.6,2.5,1.5,3.4c0.9,0.9,2.1,1.3,3.5,1.4c0.6,0,1.2-0.1,1.8-0.3c0.6-0.2,1.1-0.5,1.5-0.7
					C812.9,524.6,813,524.6,813.1,524.6z M812.5,519c-2.1-0.1-4.2-0.1-6.3-0.2c0.2-0.6,0.5-1.1,1-1.5c0.6-0.5,1.4-0.8,2.3-0.8
					c0.9,0,1.6,0.3,2.2,0.9C812,517.9,812.3,518.4,812.5,519z"/>
			</g>
			<g>
				<path class="st18" d="M827,524.3c-0.2,0-0.4,0.1-0.6,0.2c-0.7,0.6-1.7,0.9-2.8,0.8c-0.8,0-1.6-0.2-2.2-0.7
					c-0.6-0.4-1.1-1-1.5-1.7c-0.3-0.7-0.5-1.5-0.5-2.3c0-0.9,0.2-1.6,0.6-2.3c0.4-0.7,0.9-1.2,1.5-1.6c0.6-0.4,1.4-0.5,2.2-0.5
					c0.6,0,1.2,0.2,1.7,0.4c0.5,0.3,1,0.6,1.4,1.1c0.2,0.2,0.4,0.3,0.6,0.3c0.1,0,0.3,0,0.4-0.1c0.3-0.2,0.4-0.4,0.4-0.6
					c0-0.2,0-0.3-0.2-0.4c-1.1-1.4-2.5-2.2-4.4-2.2c-1.1,0-2.1,0.2-3,0.7c-0.9,0.5-1.6,1.2-2.1,2.1c-0.5,0.9-0.8,1.9-0.8,3.1
					c0,1.1,0.2,2.2,0.7,3.1c0.5,0.9,1.2,1.7,2,2.2c0.9,0.6,1.9,0.8,3,0.9c1.6,0.1,2.9-0.4,4-1.3c0.2-0.1,0.2-0.3,0.2-0.5
					c0-0.2-0.1-0.4-0.3-0.6C827.4,524.4,827.2,524.3,827,524.3z"/>
				<path class="st18" d="M826,524c-0.6,0.5-1.4,0.7-2.4,0.7c-0.7,0-1.3-0.2-1.9-0.5c-0.5-0.3-0.9-0.8-1.2-1.4
					c-0.3-0.6-0.4-1.3-0.4-2c0-0.7,0.2-1.4,0.5-2c0.3-0.6,0.7-1,1.2-1.3c1-0.5,2.3-0.5,3.2-0.1c0.4,0.2,0.8,0.5,1.2,1
					c0.4,0.5,0.8,0.6,1.1,0.6c0.3,0,0.6-0.1,0.8-0.2c0.6-0.4,0.7-0.8,0.7-1.1c0-0.3-0.1-0.7-0.3-0.9c-1.2-1.6-2.9-2.4-4.9-2.5
					c-1.2,0-2.3,0.2-3.3,0.8c-1,0.5-1.8,1.3-2.4,2.3c-0.6,1-0.9,2.1-0.9,3.4c0,1.2,0.2,2.4,0.8,3.4c0.5,1,1.3,1.9,2.3,2.5
					c1,0.6,2.1,1,3.4,1c1.8,0.1,3.3-0.4,4.5-1.5c0.3-0.3,0.5-0.6,0.5-1c0-0.3-0.1-0.7-0.5-1.1C827.4,523.5,826.6,523.5,826,524z
					 M823.7,515.5c1.6,0.1,2.9,0.7,3.8,2c0,0-0.1,0-0.1-0.1c-0.5-0.6-1-1-1.6-1.3c-1.4-0.7-3.2-0.7-4.6,0.1c-0.8,0.4-1.4,1-1.8,1.8
					c-0.4,0.8-0.6,1.7-0.7,2.6c0,1,0.2,1.8,0.5,2.6c0.4,0.8,1,1.5,1.7,1.9c0.8,0.5,1.6,0.7,2.6,0.8c1.3,0,2.4-0.3,3.3-1
					c0,0,0.1-0.1,0.2,0c-0.9,0.8-2.1,1.2-3.5,1.1c-1,0-1.9-0.3-2.7-0.8c-0.8-0.5-1.4-1.1-1.8-2c-0.4-0.8-0.6-1.7-0.6-2.7
					c0-1,0.3-1.9,0.7-2.7c0.5-0.8,1.1-1.4,1.9-1.8C821.9,515.7,822.7,515.5,823.7,515.5z"/>
			</g>
			<g>
				<path class="st18" d="M838.3,525.8c-0.1-0.2-0.3-0.2-0.6-0.3c-0.2,0-0.4,0-0.6,0c-0.7,0-1.2-0.3-1.6-0.8
					c-0.4-0.5-0.6-1.1-0.6-1.8c0.1-1.9,0.2-3.8,0.2-5.7c0.8,0,1.6,0.1,2.5,0.1c0.2,0,0.4-0.1,0.6-0.2c0.1-0.1,0.2-0.3,0.2-0.5
					c0-0.2-0.1-0.4-0.2-0.5c-0.1-0.1-0.3-0.2-0.5-0.2c-0.8,0-1.6-0.1-2.5-0.1c0-1.1,0.1-2.2,0.1-3.3c0-0.2-0.1-0.4-0.2-0.6
					c-0.2-0.2-0.4-0.2-0.6-0.3c-0.3,0-0.5,0.1-0.6,0.2c-0.2,0.2-0.2,0.3-0.2,0.6c0,1.1-0.1,2.2-0.1,3.3c-0.5,0-0.9,0-1.4-0.1
					c-0.2,0-0.4,0.1-0.6,0.2c-0.1,0.1-0.2,0.3-0.2,0.5c0,0.2,0.1,0.4,0.2,0.5c0.1,0.1,0.3,0.2,0.6,0.2c0.5,0,0.9,0,1.4,0.1
					c-0.1,1.9-0.2,3.8-0.2,5.7c0,0.8,0.1,1.5,0.4,2.1c0.3,0.6,0.8,1.1,1.4,1.5c0.6,0.4,1.3,0.6,2,0.6c0.2,0,0.3,0,0.5,0
					c0.3,0,0.5-0.1,0.7-0.2c0.2-0.2,0.3-0.3,0.3-0.6C838.5,526.2,838.4,526,838.3,525.8z"/>
				<path class="st18" d="M838.8,525.4c-0.3-0.3-0.6-0.5-1.1-0.5c-0.2,0-0.4,0-0.6,0c-0.5,0-0.8-0.2-1.1-0.5
					c-0.3-0.4-0.4-0.8-0.4-1.3c0.1-1.7,0.1-3.4,0.2-5c0.6,0,1.2,0,1.8,0.1c0.5,0,0.9-0.2,1.1-0.4c0.3-0.2,0.4-0.6,0.5-1
					c0-0.4-0.1-0.7-0.4-1c-0.3-0.3-0.6-0.4-1-0.5c-0.6,0-1.2,0-1.8-0.1c0-0.9,0.1-1.8,0.1-2.6c0-0.4-0.1-0.8-0.4-1.1
					c-0.6-0.6-1.6-0.6-2.2-0.1c-0.3,0.3-0.4,0.6-0.5,1.1c0,0.9-0.1,1.8-0.1,2.6c-0.2,0-0.5,0-0.7,0c-0.5,0-0.9,0.2-1.1,0.4
					c-0.3,0.3-0.4,0.6-0.5,1c0,0.4,0.1,0.7,0.4,1c0.2,0.2,0.5,0.4,1,0.4c0.2,0,0.5,0,0.7,0c-0.1,1.7-0.1,3.4-0.2,5
					c0,0.9,0.1,1.7,0.5,2.5c0.4,0.7,0.9,1.3,1.6,1.8c0.7,0.5,1.5,0.7,2.4,0.7c0.2,0,0.3,0,0.5,0c0.4,0,0.8-0.1,1.1-0.4
					c0.3-0.3,0.5-0.7,0.5-1.1C839.2,526.1,839,525.7,838.8,525.4z M837.7,526.5c0,0-0.1,0.1-0.2,0c-0.2,0-0.3,0-0.5,0
					c-0.6,0-1.2-0.2-1.7-0.5c-0.5-0.3-0.9-0.7-1.1-1.3c-0.3-0.5-0.4-1.1-0.3-1.8c0.1-2.1,0.2-4.3,0.3-6.4c-0.7,0-1.4-0.1-2.1-0.1
					c0.7,0,1.4,0.1,2.1,0.1c0.1-1.3,0.1-2.7,0.2-4c0,0,0.1-0.1,0.1-0.1c0,0.1,0.1,0.1,0.1,0.2c-0.1,1.3-0.1,2.7-0.2,4
					c1.1,0.1,2.1,0.1,3.2,0.2c-1.1,0-2.1-0.1-3.2-0.1c-0.1,2.1-0.2,4.3-0.3,6.4c0,0.9,0.2,1.7,0.7,2.3c0.5,0.6,1.3,1,2.1,1
					c0.2,0,0.4,0,0.6,0c0,0,0,0,0,0C837.7,526.3,837.8,526.3,837.7,526.5z"/>
			</g>
			<g>
				<path class="st18" d="M860.5,522.8c-0.6,0-1.1-0.1-1.7-0.1c0.2-3.4,0.4-6.9,0.6-10.3c0-0.2,0-0.5-0.2-0.6
					c-0.1-0.2-0.3-0.3-0.6-0.3c-0.3,0-0.5,0.1-0.7,0.3c-3.1,3.5-6.2,7.1-9.2,10.6c-0.1,0.2-0.2,0.3-0.2,0.5c0,0.2,0.1,0.4,0.2,0.6
					c0.2,0.2,0.4,0.3,0.6,0.3c2.6,0.1,5.2,0.3,7.8,0.4c-0.1,1.1-0.1,2.1-0.2,3.2c0,0.2,0,0.4,0.2,0.6c0.1,0.2,0.3,0.3,0.6,0.3
					c0.3,0,0.5-0.1,0.6-0.2c0.2-0.2,0.3-0.3,0.3-0.6c0.1-1.1,0.1-2.1,0.2-3.2c0.6,0,1.1,0.1,1.7,0.1c0.2,0,0.4,0,0.6-0.2
					c0.2-0.1,0.3-0.3,0.3-0.5C861.3,523.1,861.1,522.9,860.5,522.8z M850.8,522.3c2.3-2.6,4.5-5.2,6.8-7.8c-0.1,2.7-0.3,5.4-0.4,8.1
					C855,522.5,852.9,522.4,850.8,522.3z"/>
				<path class="st18" d="M849.3,522.9c2.8,0.1,5.7,0.3,8.5,0.4c0.2-3.6,0.4-7.2,0.6-10.9C855.4,516,852.3,519.4,849.3,522.9z
					 M856.5,521.9c-1.4-0.1-2.8-0.1-4.3-0.2c1.5-1.7,3-3.5,4.6-5.2C856.7,518.3,856.6,520.1,856.5,521.9z M849.3,522.9
					c2.8,0.1,5.7,0.3,8.5,0.4c0.2-3.6,0.4-7.2,0.6-10.9C855.4,516,852.3,519.4,849.3,522.9z M856.5,521.9c-1.4-0.1-2.8-0.1-4.3-0.2
					c1.5-1.7,3-3.5,4.6-5.2C856.7,518.3,856.6,520.1,856.5,521.9z M860.6,522.1c-0.3,0-0.7,0-1-0.1c0.2-3.2,0.4-6.4,0.5-9.7
					c0-0.4-0.1-0.8-0.4-1.1c-0.6-0.7-1.8-0.7-2.4,0c-3.1,3.5-6.2,7.1-9.2,10.6c-0.2,0.3-0.3,0.6-0.4,0.9c0,0.4,0.1,0.7,0.4,1.1
					c0.3,0.3,0.7,0.5,1.1,0.5c2.4,0.1,4.7,0.2,7.1,0.4c0,0.8-0.1,1.6-0.1,2.5c0,0.4,0.1,0.8,0.4,1.1c0.3,0.3,0.6,0.5,1.1,0.5
					c0.4,0,0.8-0.1,1.1-0.4c0.3-0.3,0.5-0.6,0.5-1c0-0.8,0.1-1.6,0.1-2.5c0.3,0,0.7,0,1,0.1c0.4,0,0.8-0.1,1.1-0.3
					c0.4-0.3,0.5-0.7,0.5-1C862.1,522.8,861.5,522.2,860.6,522.1z M858.4,512.2c0.1,0,0.1,0,0.2,0c0,0,0,0,0,0c0,0,0,0.1,0,0.2
					c-0.2,3.7-0.4,7.4-0.6,11c0.8,0,1.6,0.1,2.4,0.1c0.1,0,0.1,0,0.1,0c0,0,0,0,0,0.1c0,0-0.1,0-0.1,0.1c-0.8,0-1.6-0.1-2.4-0.1
					c-0.1,1.3-0.1,2.6-0.2,3.8c-0.1,0-0.1,0.1-0.2,0.1c0-0.1-0.1-0.1-0.1-0.2c0.1-1.3,0.1-2.6,0.2-3.8c-2.9-0.2-5.7-0.3-8.6-0.5
					c-0.2,0.1-0.4,0.3-0.5,0.4C851.9,519.7,855.1,516,858.4,512.2z M858.4,512.5c-3,3.5-6.1,6.9-9.1,10.4c2.8,0.1,5.7,0.3,8.5,0.4
					C858,519.7,858.2,516.1,858.4,512.5z M856.5,521.9c-1.4-0.1-2.8-0.1-4.3-0.2c1.5-1.7,3-3.5,4.6-5.2
					C856.7,518.3,856.6,520.1,856.5,521.9z M849.3,522.9c2.8,0.1,5.7,0.3,8.5,0.4c0.2-3.6,0.4-7.2,0.6-10.9
					C855.4,516,852.3,519.4,849.3,522.9z M856.5,521.9c-1.4-0.1-2.8-0.1-4.3-0.2c1.5-1.7,3-3.5,4.6-5.2
					C856.7,518.3,856.6,520.1,856.5,521.9z M849.3,522.9c2.8,0.1,5.7,0.3,8.5,0.4c0.2-3.6,0.4-7.2,0.6-10.9
					C855.4,516,852.3,519.4,849.3,522.9z M856.5,521.9c-1.4-0.1-2.8-0.1-4.3-0.2c1.5-1.7,3-3.5,4.6-5.2
					C856.7,518.3,856.6,520.1,856.5,521.9z"/>
			</g>
			<g>
				<path class="st18" d="M866.5,526.9c-0.2-0.3-0.5-0.4-0.9-0.4c-0.3,0-0.6,0.1-0.9,0.3c-0.3,0.2-0.4,0.5-0.4,0.9
					c0,0.3,0.1,0.6,0.3,0.9c0.2,0.3,0.5,0.4,0.9,0.4c0.3,0,0.7-0.1,0.9-0.3c0.3-0.2,0.4-0.5,0.4-0.8
					C866.9,527.4,866.7,527.1,866.5,526.9z"/>
				<path class="st18" d="M867,526.4c-0.7-0.8-1.9-0.9-2.8-0.2c-0.4,0.3-0.6,0.8-0.7,1.4c0,0.5,0.1,1,0.5,1.4
					c0.4,0.4,0.8,0.6,1.3,0.6c0.5,0,1-0.1,1.4-0.5c0.4-0.3,0.6-0.8,0.7-1.3C867.6,527.3,867.4,526.8,867,526.4z M865.9,528.1
					c-0.1,0.1-0.3,0.2-0.4,0.2c-0.1,0-0.3-0.1-0.4-0.2c-0.1-0.1-0.2-0.2-0.1-0.4c0-0.2,0.1-0.3,0.2-0.4c0.1-0.1,0.3-0.1,0.4-0.1
					c0.2,0,0.3,0.1,0.4,0.2c0.1,0.1,0.2,0.3,0.2,0.4C866.1,527.9,866.1,528,865.9,528.1z"/>
			</g>
			<g>
				<path class="st18" d="M880,516.7c-0.3-1.3-0.8-2.3-1.6-3c-0.7-0.7-1.6-1.1-2.7-1.2c-1.1-0.1-2,0.2-2.9,0.8
					c-0.8,0.6-1.5,1.5-1.9,2.8c-0.5,1.2-0.8,2.7-0.9,4.4c-0.1,1.7,0,3.2,0.3,4.5c0.3,1.3,0.8,2.3,1.6,3c0.7,0.7,1.6,1.1,2.7,1.2
					c1.6,0.1,2.9-0.6,3.9-2c1-1.4,1.6-3.4,1.8-6C880.4,519.4,880.3,518,880,516.7z M874.7,527.5c-1.1-0.1-1.9-0.7-2.4-2
					c-0.5-1.3-0.7-2.9-0.6-4.9c0.1-2,0.5-3.6,1.2-4.8c0.7-1.2,1.5-1.7,2.7-1.7c1.1,0.1,1.9,0.7,2.5,2c0.5,1.3,0.7,2.9,0.6,4.9
					c-0.1,2-0.5,3.6-1.2,4.8C876.8,527,875.9,527.6,874.7,527.5z"/>
				<path class="st18" d="M878.7,515.9c-0.8-1.9-2.1-2.4-3.1-2.4c-1-0.1-2.3,0.2-3.3,2c-0.7,1.3-1.1,3-1.3,5.1
					c-0.1,2.1,0.1,3.9,0.6,5.2c0.8,1.9,2.1,2.4,3,2.4c0.5,0,1.1,0,1.7-0.3c0.6-0.3,1.2-0.8,1.7-1.7c0.7-1.3,1.1-3,1.3-5.1
					C879.5,519,879.3,517.2,878.7,515.9z M874.8,526.8c-0.5,0-1.3-0.2-1.8-1.6c-0.5-1.1-0.6-2.7-0.5-4.6c0.1-1.9,0.5-3.4,1.1-4.5
					c0.7-1.2,1.5-1.3,2-1.3c0.5,0,1.3,0.2,1.8,1.6c0.5,1.2,0.7,2.7,0.5,4.6c-0.1,1.9-0.5,3.4-1.1,4.5
					C876.1,526.7,875.3,526.8,874.8,526.8z M878.7,515.9c-0.8-1.9-2.1-2.4-3.1-2.4c-1-0.1-2.3,0.2-3.3,2c-0.7,1.3-1.1,3-1.3,5.1
					c-0.1,2.1,0.1,3.9,0.6,5.2c0.8,1.9,2.1,2.4,3,2.4c0.5,0,1.1,0,1.7-0.3c0.6-0.3,1.2-0.8,1.7-1.7c0.7-1.3,1.1-3,1.3-5.1
					C879.5,519,879.3,517.2,878.7,515.9z M874.8,526.8c-0.5,0-1.3-0.2-1.8-1.6c-0.5-1.1-0.6-2.7-0.5-4.6c0.1-1.9,0.5-3.4,1.1-4.5
					c0.7-1.2,1.5-1.3,2-1.3c0.5,0,1.3,0.2,1.8,1.6c0.5,1.2,0.7,2.7,0.5,4.6c-0.1,1.9-0.5,3.4-1.1,4.5
					C876.1,526.7,875.3,526.8,874.8,526.8z M880.7,516.5c-0.3-1.4-0.9-2.5-1.8-3.3c-0.8-0.9-1.9-1.3-3.2-1.4c-1.3-0.1-2.4,0.2-3.3,1
					c-0.9,0.7-1.6,1.7-2.2,3.1c-0.5,1.3-0.8,2.8-0.9,4.6c-0.1,1.8,0,3.4,0.3,4.7c0.4,1.4,0.9,2.5,1.8,3.3c0.8,0.8,1.9,1.3,3.1,1.4
					c1.9,0.1,3.4-0.6,4.5-2.3c1.1-1.5,1.7-3.7,1.9-6.4C881.1,519.4,881,517.9,880.7,516.5z M874.7,528.5c-0.9-0.1-1.6-0.4-2.3-1
					c-0.6-0.6-1.1-1.5-1.4-2.7c-0.3-1.2-0.4-2.6-0.3-4.3c0.1-1.6,0.4-3.1,0.8-4.2c0.4-1.1,1-1.9,1.7-2.5c0.7-0.5,1.5-0.7,2.4-0.7
					c0.9,0.1,1.7,0.4,2.3,1c0.6,0.6,1.1,1.5,1.4,2.7c0.3,1.2,0.4,2.6,0.3,4.3c-0.2,2.5-0.7,4.4-1.6,5.7
					C877.1,528,876,528.5,874.7,528.5z M879.3,521.1c0.1-2.1-0.1-3.8-0.6-5.2c-0.8-1.9-2.1-2.4-3.1-2.4c-1-0.1-2.3,0.2-3.3,2
					c-0.7,1.3-1.1,3-1.3,5.1c-0.1,2.1,0.1,3.9,0.6,5.2c0.8,1.9,2.1,2.4,3,2.4c0.5,0,1.1,0,1.7-0.3c0.6-0.3,1.2-0.8,1.7-1.7
					C878.7,524.9,879.2,523.2,879.3,521.1z M874.8,526.8c-0.5,0-1.3-0.2-1.8-1.6c-0.5-1.1-0.6-2.7-0.5-4.6c0.1-1.9,0.5-3.4,1.1-4.5
					c0.7-1.2,1.5-1.3,2-1.3c0.5,0,1.3,0.2,1.8,1.6c0.5,1.2,0.7,2.7,0.5,4.6c-0.1,1.9-0.5,3.4-1.1,4.5
					C876.1,526.7,875.3,526.8,874.8,526.8z M878.7,515.9c-0.8-1.9-2.1-2.4-3.1-2.4c-1-0.1-2.3,0.2-3.3,2c-0.7,1.3-1.1,3-1.3,5.1
					c-0.1,2.1,0.1,3.9,0.6,5.2c0.8,1.9,2.1,2.4,3,2.4c0.5,0,1.1,0,1.7-0.3c0.6-0.3,1.2-0.8,1.7-1.7c0.7-1.3,1.1-3,1.3-5.1
					C879.5,519,879.3,517.2,878.7,515.9z M874.8,526.8c-0.5,0-1.3-0.2-1.8-1.6c-0.5-1.1-0.6-2.7-0.5-4.6c0.1-1.9,0.5-3.4,1.1-4.5
					c0.7-1.2,1.5-1.3,2-1.3c0.5,0,1.3,0.2,1.8,1.6c0.5,1.2,0.7,2.7,0.5,4.6c-0.1,1.9-0.5,3.4-1.1,4.5
					C876.1,526.7,875.3,526.8,874.8,526.8z M878.7,515.9c-0.8-1.9-2.1-2.4-3.1-2.4c-1-0.1-2.3,0.2-3.3,2c-0.7,1.3-1.1,3-1.3,5.1
					c-0.1,2.1,0.1,3.9,0.6,5.2c0.8,1.9,2.1,2.4,3,2.4c0.5,0,1.1,0,1.7-0.3c0.6-0.3,1.2-0.8,1.7-1.7c0.7-1.3,1.1-3,1.3-5.1
					C879.5,519,879.3,517.2,878.7,515.9z M874.8,526.8c-0.5,0-1.3-0.2-1.8-1.6c-0.5-1.1-0.6-2.7-0.5-4.6c0.1-1.9,0.5-3.4,1.1-4.5
					c0.7-1.2,1.5-1.3,2-1.3c0.5,0,1.3,0.2,1.8,1.6c0.5,1.2,0.7,2.7,0.5,4.6c-0.1,1.9-0.5,3.4-1.1,4.5
					C876.1,526.7,875.3,526.8,874.8,526.8z"/>
			</g>
		</g>
	</g>
</g>
</svg>
